<?xml version="1.0" standalone="no"?>
<!DOCTYPE svg PUBLIC "-//W3C//DTD SVG 1.1//EN" "http://www.w3.org/Graphics/SVG/1.1/DTD/svg11.dtd" >
<svg xmlns="http://www.w3.org/2000/svg" xmlns:xlink="http://www.w3.org/1999/xlink" version="1.1">
<metadata>
Created by FontForge 20160405 at Mon Jul  1 11:06:27 2019
 By www-data
</metadata>
<defs>
<font id="Focus-Regular" horiz-adv-x="769" >
  <font-face 
    font-family="Focus"
    font-weight="400"
    font-stretch="normal"
    units-per-em="1000"
    panose-1="0 0 0 0 0 0 0 0 0 0"
    ascent="500"
    descent="-500"
    x-height="257.5"
    cap-height="740"
    bbox="-78 -740 1092 1061"
    underline-thickness="50"
    underline-position="-150"
    unicode-range="U+000D-FB02"
  />
<missing-glyph horiz-adv-x="500" 
d="M63 0v500h375v-500h-375zM125 63h250v375h-250v-375z" />
    <glyph glyph-name=".notdef" horiz-adv-x="500" 
d="M63 0v500h375v-500h-375zM125 63h250v375h-250v-375z" />
    <glyph glyph-name=".null" horiz-adv-x="0" 
 />
    <glyph glyph-name="nonmarkingreturn" unicode="&#xd;" horiz-adv-x="0" 
 />
    <glyph glyph-name="NULL" horiz-adv-x="0" 
 />
    <glyph glyph-name="NULL" horiz-adv-x="0" 
 />
    <glyph glyph-name="space" unicode=" " horiz-adv-x="343" 
 />
    <glyph glyph-name="exclam" unicode="!" horiz-adv-x="265" 
d="M107 -100q-14 0 -23.5 9.5t-9.5 23.5v779q0 14 9.5 23.5t23.5 9.5t23 -9.5t9 -23.5v-779q0 -14 -9 -23.5t-23 -9.5zM68 -216q0 16 11 27.5t28 11.5q16 0 27.5 -11.5t11.5 -27.5q0 -17 -11.5 -28t-27.5 -11q-17 0 -28 11t-11 28z" />
    <glyph glyph-name="quotedbl" unicode="&#x22;" horiz-adv-x="367" 
d="M99 483q-13 0 -21.5 8.5t-8.5 21.5v197q0 13 8.5 21.5t21.5 8.5q12 0 21 -8.5t9 -21.5v-197q0 -13 -9 -21.5t-21 -8.5zM215 483q-12 0 -21 8.5t-9 21.5v197q0 13 9 21.5t21 8.5q13 0 21.5 -8.5t8.5 -21.5v-197q0 -13 -8.5 -21.5t-21.5 -8.5z" />
    <glyph glyph-name="numbersign" unicode="#" horiz-adv-x="666" 
d="M366 38l19 93h-183l-18 -93h182zM532 38q13 0 22 -9t9 -22q0 -14 -9 -23t-22 -9h-113l-42 -210q-2 -11 -11 -18t-20 -7h-6q-13 3 -20 14t-5 24l39 197h-183l-41 -210q-2 -11 -11 -18t-20 -7h-6q-13 3 -20 14t-5 24l39 197h-70q-13 0 -22.5 9t-9.5 23q0 13 9.5 22t22.5 9
h82l19 93h-101q-14 0 -23 9.5t-9 22.5q0 14 9 23t23 9h113l41 209q2 13 13 20.5t25 4.5q13 -2 20 -13t5 -24l-39 -197h182l42 209q2 13 13 20.5t24 4.5q13 -2 20 -13t5 -24l-39 -197h70q13 0 22 -9t9 -23q0 -13 -9 -22.5t-22 -9.5h-83l-18 -93h101z" />
    <glyph glyph-name="percent" unicode="%" horiz-adv-x="549" 
d="M27 -255q-8 0 -16 5q-11 7 -14.5 19t3.5 23l365 617q7 11 19.5 14.5t23.5 -3.5t14.5 -19t-3.5 -23l-365 -617q-10 -16 -27 -16zM119 208q-23 0 -43 9t-35 24t-24 35t-9 43q0 22 9 42.5t24 35.5t35 24t43 9t43.5 -9t35.5 -24t23.5 -35.5t8.5 -42.5q0 -23 -8.5 -43
t-23.5 -35t-35.5 -24t-43.5 -9zM119 368q-20 0 -34 -14.5t-14 -34.5t14 -34.5t34 -14.5t34.5 14.5t14.5 34.5t-14.5 34.5t-34.5 14.5zM296 -260q-23 0 -43 9t-35 24t-24 35t-9 43q0 22 9 42.5t24 35.5t35 24t43 9q22 0 42.5 -9t35.5 -24t24 -35.5t9 -42.5q0 -23 -9 -43
t-24 -35t-35.5 -24t-42.5 -9zM296 -100q-20 0 -34.5 -14.5t-14.5 -34.5t14.5 -34.5t34.5 -14.5t34.5 14.5t14.5 34.5t-14.5 34.5t-34.5 14.5z" />
    <glyph glyph-name="ampersand" unicode="&#x26;" horiz-adv-x="733" 
d="M295 -188q98 0 166 42l-286 376q-14 -5 -26 -11t-23 -13q-62 -39 -62 -90v-169q0 -50 62 -91q33 -21 77 -32.5t92 -11.5zM202 308q21 5 44 6.5t46 3.5h3h6q31 0 59.5 8t49.5 22q11 8 25 21.5t14 33.5v110q0 20 -14 34t-25 21q-47 30 -115 30q-32 0 -62 -8t-52 -22
q-11 -7 -25 -21t-14 -34v-110q0 -2 -1 -3q1 -1 3 -10t13 -23zM588 -201q9 -11 7 -25.5t-13 -22.5q-7 -7 -21 -7q-17 0 -27 13l-31 42h-1q-86 -55 -207 -55q-58 0 -111 14t-95 41q-45 30 -67 63q-27 40 -27 85v169q0 45 27 84q25 40 67 64q11 7 21.5 12t22.5 10l-31 40
q-21 28 -25 49t-4 29v109q0 33 18.5 62t52.5 51q31 20 70 30t81 10q43 0 82 -10t70 -30q34 -22 52 -51t18 -62v-110q0 -33 -18 -62.5t-52 -50.5q-61 -38 -147 -40q-1 0 -2 -0.5t-2 -0.5q-2 0 -3.5 0.5t-3.5 0.5q-22 0 -41 -3l264 -347q15 22 15 47v168q0 14 10 24t24 10
t24 -10t10 -24v-168q0 -22 -6 -43.5t-20 -41.5l-14 -19z" />
    <glyph glyph-name="quotesingle" unicode="'" horiz-adv-x="251" 
d="M99 483q-13 0 -21.5 8.5t-8.5 21.5v197q0 13 8.5 21.5t21.5 8.5q12 0 21 -8.5t9 -21.5v-197q0 -13 -9 -21.5t-21 -8.5z" />
    <glyph glyph-name="parenleft" unicode="(" horiz-adv-x="316" 
d="M229 -255q-2 0 -12 2q-67 25 -106 67q-44 47 -44 105v652q0 58 44 105q39 42 106 67q13 5 25.5 -1t17.5 -19t-1 -25t-19 -17q-51 -19 -79 -48t-28 -62v-652q0 -33 28 -62t79 -48q13 -5 19 -17t1 -25q-9 -22 -31 -22z" />
    <glyph glyph-name="parenright" unicode=")" horiz-adv-x="383" 
d="M100 -255q-10 0 -18.5 5.5t-12.5 16.5q-5 13 1 25t19 17q51 19 79 48t28 62v652q0 33 -28 62t-79 48q-13 5 -19 17t-1 25t17 19t25 1q33 -13 59.5 -29t46.5 -38q45 -48 45 -105v-652q0 -57 -45 -105q-40 -43 -106 -67q-8 -2 -11 -2z" />
    <glyph glyph-name="asterisk" unicode="*" horiz-adv-x="480" 
d="M314 597q14 0 23 -9t9 -23t-9 -23t-23 -9h-57l41 -41q9 -9 9 -22t-9 -23q-11 -9 -23 -9q-13 0 -22 9l-41 41v-57q0 -14 -9 -23t-23 -9t-23 9t-9 23v57l-41 -41q-9 -9 -22 -9t-23 9q-9 10 -9 23t9 22l41 41h-57q-14 0 -23 9t-9 23t9 23t23 9h57l-41 41q-9 9 -9.5 22
t9.5 23t23 9.5t22 -9.5l41 -41v57q0 14 9 23t23 9t23 -9t9 -23v-57l41 41q9 9 22 9.5t23 -9.5t9.5 -23t-9.5 -22l-41 -41h57z" />
    <glyph glyph-name="plus" unicode="+" horiz-adv-x="590" 
d="M445 18q14 0 23 -9.5t9 -23.5t-9 -23.5t-23 -9.5h-172v-172q0 -14 -9.5 -23t-23.5 -9t-23.5 9t-9.5 23v172h-172q-14 0 -23 9.5t-9 23.5t9 23.5t23 9.5h172v172q0 14 9.5 23t23.5 9t23.5 -9t9.5 -23v-172h172z" />
    <glyph glyph-name="comma" unicode="," horiz-adv-x="286" 
d="M58 -400q-18 0 -26 15q-6 11 -2.5 23t14.5 18q44 23 73 68q14 22 20.5 46.5t6.5 49.5q0 13 8.5 21.5t21.5 8.5q12 0 20.5 -8.5t8.5 -21.5q0 -70 -36 -127q-35 -57 -95 -89q-4 -4 -14 -4z" />
    <glyph glyph-name="hyphen" unicode="-" horiz-adv-x="489" 
d="M99 -45q-13 0 -21.5 8.5t-8.5 21.5t8.5 21.5t21.5 8.5h223q13 0 21.5 -8.5t8.5 -21.5t-8.5 -21.5t-21.5 -8.5h-223z" />
    <glyph glyph-name="period" unicode="." horiz-adv-x="234" 
d="M68 -216q0 16 11 27.5t28 11.5q16 0 27.5 -11.5t11.5 -27.5q0 -17 -11.5 -28t-27.5 -11q-17 0 -28 11t-11 28z" />
    <glyph glyph-name="slash" unicode="/" horiz-adv-x="455" 
d="M37 -255q-8 0 -16 5q-11 7 -14.5 19t3.5 23l365 617q7 11 19.5 14.5t23.5 -3.5t14.5 -19t-3.5 -23l-365 -617q-10 -16 -27 -16z" />
    <glyph glyph-name="zero" unicode="0" 
d="M599 552q0 11 -3 22l-380 -722l11 -8q31 -23 72 -32t86 -9q92 0 157 41q57 37 57 84v624zM170 -72q0 -12 3 -22l380 722q-5 5 -11 8q-65 41 -157 41q-45 0 -85.5 -10.5t-72.5 -30.5q-57 -35 -57 -84v-624zM638 631q25 -38 25 -79v-624q0 -41 -25 -79q-11 -17 -27 -31.5
t-35 -26.5q-40 -25 -88.5 -38t-102.5 -13t-103.5 13t-88.5 38q-20 12 -35.5 26.5t-26.5 31.5q-13 19 -18.5 38.5t-5.5 40.5v624q0 20 5.5 40t18.5 39q11 17 26.5 31.5t35.5 26.5q39 25 88.5 38t103.5 13t102.5 -13t88.5 -38q19 -12 35 -26.5t27 -31.5z" />
    <glyph glyph-name="one" unicode="1" 
d="M508 -260q-13 0 -22.5 9t-9.5 23v845l-190 -241q-9 -11 -21.5 -12t-22.5 7q-11 8 -12.5 21t6.5 23l247 313q15 18 35 10q22 -7 22 -30v-936q0 -14 -9.5 -23t-22.5 -9z" />
    <glyph glyph-name="two" unicode="2" 
d="M138 -260q-13 0 -22 9t-9 23v234q0 54 21 102t61 86q39 38 89 58t107 20q44 0 83 16t68 43.5t46 64t17 78.5t-17 79t-46 64.5t-68 43.5t-83 16q-45 0 -84 -16t-68 -43.5t-46 -64.5t-17 -79q0 -13 -9 -22t-23 -9q-13 0 -22 9t-9 22q0 54 21 102.5t61 86.5q39 38 89 57.5
t107 19.5t106.5 -19.5t89.5 -57.5t61 -86.5t21 -102.5t-21 -102t-61 -86q-81 -78 -196 -78q-45 0 -84 -16t-68 -43t-46 -64t-17 -79v-203h461q14 0 23 -9t9 -22q0 -14 -9 -23t-23 -9h-493z" />
    <glyph glyph-name="three" unicode="3" 
d="M597 223q44 -42 66 -94t22 -110t-22 -110t-66 -94q-42 -41 -97 -62t-115 -21t-115 21t-97 62q-43 42 -66 94t-23 110q0 14 9 23t23 9q13 0 22 -9t9 -23q0 -47 19 -87.5t51 -71t75.5 -48t92.5 -17.5t92 17.5t75 48t51 71t19 87.5q0 46 -19 87t-51 71.5t-75 48t-92 17.5h-4
q-12 2 -20 10.5t-8 21.5t9 22t23 9q40 0 75 14.5t61 39t41 57.5t15 70t-15 70.5t-41 58t-61 39t-75 14.5t-75 -14.5t-61.5 -39t-41.5 -58t-15 -70.5q0 -13 -9 -22t-22 -9q-14 0 -23 9t-9 22q0 51 20 95.5t55 77.5t81.5 52.5t99.5 19.5t99.5 -19.5t81 -52.5t54.5 -77.5
t20 -95.5q0 -67 -33.5 -122t-90.5 -87q22 -11 42.5 -24t38.5 -31z" />
    <glyph glyph-name="four" unicode="4" 
d="M508 -260q-14 0 -23 9t-9 23l1 202h-339q-17 0 -27 16q-10 15 -1 31l372 702q5 10 14.5 14.5t20.5 1.5q11 -2 17.5 -11t6.5 -20l-1 -671h91q14 0 23 -9t9 -22q0 -14 -9 -23t-23 -9h-91l-1 -202q0 -14 -9 -23t-22 -9zM191 37h286l1 544z" />
    <glyph glyph-name="five" unicode="5" 
d="M581 194q40 -38 61 -86t21 -102t-21 -102.5t-61 -86.5t-89.5 -57.5t-106.5 -19.5h-247q-13 0 -22 9t-9 23q0 13 9 22t22 9h247q44 0 83 16t68 43.5t46 64.5t17 79t-17 79t-46 64t-68 43t-83 16h-247q-12 0 -21.5 8.5t-9.5 20.5v3v468q0 14 9 23t22 9h449q14 0 23 -9
t9 -23q0 -13 -9 -22t-23 -9h-417v-405h215q115 0 196 -78z" />
    <glyph glyph-name="six" unicode="6" 
d="M385 -197q44 0 83 16t68 43.5t46 64t17 78.5t-17 79t-46 64t-68 43t-83 16q-60 0 -108.5 -26t-75.5 -71l-11 -18q-13 -20 -16.5 -42t-3.5 -45q0 -42 17 -78.5t46 -64t68 -43.5t84 -16zM581 193q40 -38 61 -86t21 -102t-21 -102t-61 -86t-89.5 -57.5t-106.5 -19.5
t-107 19.5t-89 57.5q-40 38 -61 86t-21 102q0 38 11 73t30 67l332 579q6 11 19 15t25 -3q11 -6 14 -19t-3 -24l-253 -441q25 9 50.5 14t52.5 5q115 0 196 -78z" />
    <glyph glyph-name="seven" unicode="7" 
d="M138 -260q-8 0 -15 4q-11 6 -15 18.5t2 23.5l469 891h-441q-13 0 -22 9t-9 22q0 14 9 23t22 9h493q16 0 27 -15q9 -16 1 -31l-493 -937q-9 -17 -28 -17z" />
    <glyph glyph-name="eight" unicode="8" 
d="M385 -195q45 0 85 16.5t70 44.5t47.5 65.5t17.5 80.5t-17.5 81t-47.5 66t-70 44.5t-85 16.5q-46 0 -86 -16.5t-70 -44.5t-47 -66t-17 -81t17 -80.5t47 -65.5t70 -44.5t86 -16.5zM189 480q0 -41 15.5 -76.5t42 -62t62 -42t76.5 -15.5q40 0 75.5 15.5t62 42t42 62
t15.5 76.5q0 40 -15.5 76t-42 62t-62 41.5t-75.5 15.5q-41 0 -76.5 -15.5t-62 -41.5t-42 -62t-15.5 -76zM585 205q42 -38 63 -88t21 -105t-21 -104.5t-63 -88.5q-40 -38 -91.5 -58.5t-108.5 -20.5t-108 20.5t-93 58.5q-42 39 -63 88.5t-21 104.5t21.5 104.5t62.5 88.5
q17 15 34 27.5t37 22.5q-60 34 -95 93.5t-35 131.5q0 54 20.5 101t55.5 82.5t82.5 56t101.5 20.5t101 -20.5t82.5 -56t56 -82.5t20.5 -101q0 -72 -36 -131.5t-94 -93.5q37 -18 70 -50z" />
    <glyph glyph-name="nine" unicode="9" 
d="M385 273q58 0 106.5 26t76.5 71l11 18q12 20 16 42t4 45q0 42 -17 78.5t-46 64t-68 43.5t-83 16q-45 0 -84 -16t-68 -43.5t-46 -64t-17 -78.5t17 -79t46 -64t68 -43t84 -16zM663 475q0 -38 -12 -73t-30 -67l-332 -579q-10 -16 -28 -16q-8 0 -15 4q-11 7 -15 19.5t3 23.5
l253 441q-24 -9 -50 -14t-52 -5q-57 0 -107 20t-89 58q-40 38 -61 86t-21 102t21 102t61 86q39 38 89 57.5t107 19.5t106.5 -19.5t89.5 -57.5t61 -86t21 -102z" />
    <glyph glyph-name="colon" unicode=":" horiz-adv-x="262" 
d="M68 -216q0 16 11 27.5t28 11.5q16 0 27.5 -11.5t11.5 -27.5q0 -17 -11.5 -28t-27.5 -11q-17 0 -28 11t-11 28zM68 64q0 16 11 27.5t28 11.5q16 0 27.5 -11.5t11.5 -27.5q0 -17 -11.5 -28t-27.5 -11q-17 0 -28 11t-11 28z" />
    <glyph glyph-name="semicolon" unicode=";" horiz-adv-x="327" 
d="M58 -400q-18 0 -26 15q-6 11 -2.5 23t14.5 18q44 23 73 68q14 22 20.5 46.5t6.5 49.5q0 13 8.5 21.5t21.5 8.5q12 0 20.5 -8.5t8.5 -21.5q0 -70 -36 -127q-35 -57 -95 -89q-4 -4 -14 -4zM135 -61q0 17 11 28t27 11q17 0 28 -11t11 -28q0 -16 -11 -27.5t-28 -11.5
q-16 0 -27 11.5t-11 27.5z" />
    <glyph glyph-name="less" unicode="&#x3c;" horiz-adv-x="494" 
d="M340 -163q-6 0 -12 3l-305 141q-17 8 -17 26q-2 19 16 27l303 150q11 5 22.5 1.5t16.5 -14.5q6 -11 2 -22.5t-15 -17.5l-248 -123l250 -115q11 -5 15 -16.5t-1 -22.5q-8 -17 -27 -17z" />
    <glyph glyph-name="equal" unicode="=" horiz-adv-x="412" 
d="M29 -111q-13 0 -21.5 9t-8.5 21q0 13 8.5 21.5t21.5 8.5h223q13 0 21.5 -8.5t8.5 -21.5q0 -12 -8.5 -21t-21.5 -9h-223zM29 19q-13 0 -21.5 9t-8.5 21q0 13 8.5 21.5t21.5 8.5h223q13 0 21.5 -8.5t8.5 -21.5q0 -12 -8.5 -21t-21.5 -9h-223z" />
    <glyph glyph-name="greater" unicode="&#x3e;" horiz-adv-x="500" 
d="M32 -163q-18 0 -26 17q-5 11 -1 22.5t15 16.5l250 115l-248 123q-11 6 -15 17.5t1 22.5q6 11 17.5 14.5t22.5 -1.5l303 -150q16 -7 16 -27q0 -18 -17 -26l-305 -141q-6 -3 -13 -3z" />
    <glyph glyph-name="question" unicode="?" horiz-adv-x="498" 
d="M200 -141q-13 0 -22 9t-9 22v424q0 13 9 22t22 9q29 0 56 6.5t47 19.5q23 15 29 28.5t6 21.5v139q0 8 -6 22t-29 28q-20 13 -47 20t-56 7t-56.5 -7t-47.5 -20q-23 -14 -29 -28t-6 -22v-50q0 -13 -9 -21.5t-22 -8.5t-21.5 8.5t-8.5 21.5v50q0 62 64 102q27 17 62.5 26.5
t73.5 9.5t73 -9t63 -27q31 -20 47.5 -46t16.5 -56v-139q0 -29 -16.5 -55.5t-47.5 -46.5q-44 -28 -105 -34v-395q0 -13 -9 -22t-22 -9zM163 -225q0 15 11 25.5t26 10.5t25.5 -10.5t10.5 -25.5t-10.5 -26t-25.5 -11t-26 11t-11 26z" />
    <glyph glyph-name="at" unicode="@" horiz-adv-x="654" 
d="M200 30q0 -25 9.5 -46.5t26 -38t38 -26t46.5 -9.5t46.5 9.5t38 26t26 38t9.5 46.5t-9.5 46.5t-26 38t-38 26t-46.5 9.5t-46.5 -9.5t-38 -26t-26 -38t-9.5 -46.5zM546 256q46 -45 70 -103.5t24 -122.5q0 -38 -14 -70.5t-39 -57.5t-58 -39t-70 -14q-35 0 -69 14
q-34 -14 -70 -14q-38 0 -70.5 14t-57.5 39t-39 57.5t-14 70.5q0 37 14 70t39 58t57.5 39t70.5 14q37 0 70 -14t58 -39t39 -58t14 -70q0 -35 -12.5 -65.5t-33.5 -54.5h4q25 0 47 9.5t38 26t25.5 38t9.5 46.5q0 52 -19.5 99t-56.5 84t-84 56.5t-99 19.5t-99 -19.5t-84 -56.5
t-56.5 -84t-19.5 -99t19.5 -99t56.5 -84t84 -56.5t99 -19.5q13 0 21.5 -9t8.5 -22q0 -12 -8.5 -21t-21.5 -9q-64 0 -122.5 24t-103.5 70q-46 45 -70 103.5t-24 122.5t24 122.5t70 103.5q45 46 103.5 70t122.5 24t122.5 -24t103.5 -70z" />
    <glyph glyph-name="A" unicode="A" horiz-adv-x="748" 
d="M562 272v315q0 38 -26 64t-64 26h-250q-38 0 -64 -26t-26 -64v-315h430zM472 740q32 0 60 -12t48.5 -33t32.5 -49t12 -59v-815q0 -14 -9 -23t-22 -9q-14 0 -23 9t-9 23v436h-430v-436q0 -14 -9 -23t-22 -9q-14 0 -23 9t-9 23v815q0 31 12 59t33 49t48.5 33t59.5 12h250z
" />
    <glyph glyph-name="B" unicode="B" horiz-adv-x="606" 
d="M278 -197q45 0 84 16t68 43.5t46 64.5t17 79t-17 79t-46 64t-68 43t-84 16h-215v-315v-90h215zM63 677v-405h215q45 0 84 16t68 43.5t46 64t17 78.5t-17 79t-46 64.5t-68 43.5t-84 16h-215zM474 194q40 -38 61 -86t21 -102t-21 -102.5t-61 -86.5q-39 -38 -89 -57.5
t-107 -19.5h-246q-14 0 -23 9t-9 23v468v347v121q0 14 9 23t23 9h246q57 0 107 -19.5t89 -57.5q40 -38 61 -86.5t21 -102.5t-21 -102t-61 -86q-14 -14 -30.5 -25.5t-33.5 -20.5q17 -9 33.5 -20.5t30.5 -25.5z" />
    <glyph glyph-name="C" unicode="C" horiz-adv-x="540" 
d="M153 -260q-32 0 -59.5 12t-48.5 33t-33 48.5t-12 59.5v694q0 31 12 59t33 49t48.5 33t59.5 12h372q13 0 22 -9t9 -23q0 -13 -9 -22t-22 -9h-372q-38 0 -64 -26t-26 -64v-694q0 -38 26 -64t64 -26h372q13 0 22 -9t9 -22q0 -14 -9 -23t-22 -9h-372z" />
    <glyph glyph-name="D" unicode="D" horiz-adv-x="740" 
d="M98 -260q-14 0 -23 9t-9 23v936q0 14 9 23t23 9h246q57 0 107 -19.5t89 -57.5q40 -38 61 -86.5t21 -102.5v-468q0 -54 -21 -102.5t-61 -86.5q-39 -38 -89 -57.5t-107 -19.5h-246zM129 677v-874h215q45 0 84 16t68 43.5t46 64.5t17 79v468q0 42 -17 79t-46 64.5t-68 43.5
t-84 16h-215z" />
    <glyph glyph-name="E" unicode="E" horiz-adv-x="546" 
d="M525 -197q13 0 22 -9t9 -22q0 -14 -9 -23t-22 -9h-372q-32 0 -59.5 12t-48.5 33t-33 48.5t-12 59.5v694q0 31 12 59t33 49t48.5 33t59.5 12h372q13 0 22 -9t9 -23q0 -13 -9 -22t-22 -9h-372q-38 0 -64 -26t-26 -64v-315h338q14 0 23 -9.5t9 -22.5t-9 -22.5t-23 -9.5h-338
v-315q0 -38 26 -64t64 -26h372z" />
    <glyph glyph-name="F" unicode="F" horiz-adv-x="555" 
d="M525 740q13 0 22 -9t9 -23q0 -13 -9 -22t-22 -9h-372q-38 0 -64 -26t-26 -64v-315h338q14 0 23 -9.5t9 -22.5t-9 -22.5t-23 -9.5h-338v-436q0 -14 -9 -23t-22 -9q-14 0 -23 9t-9 23v815q0 31 12 59t33 49t48.5 33t59.5 12h372z" />
    <glyph glyph-name="G" unicode="G" horiz-adv-x="663" 
d="M153 -260q-32 0 -59.5 12t-48.5 33t-33 48.5t-12 59.5v694q0 31 12 59t33 49t48.5 33t59.5 12h372q13 0 22 -9t9 -23q0 -13 -9 -22t-22 -9h-372q-38 0 -64 -26t-26 -64v-694q0 -38 26 -64t64 -26h250q38 0 64 26t26 64v315h-215q-13 0 -22.5 9.5t-9.5 22.5t9.5 22.5
t22.5 9.5h247q13 0 22 -9.5t9 -22.5v-347q0 -32 -12 -59.5t-32.5 -48.5t-48.5 -33t-60 -12h-250z" />
    <glyph glyph-name="H" unicode="H" horiz-adv-x="748" 
d="M595 740q13 0 22 -9t9 -23v-936q0 -14 -9 -23t-22 -9q-14 0 -23 9t-9 23v436h-430v-436q0 -14 -9 -23t-22 -9q-14 0 -23 9t-9 23v936q0 14 9 23t23 9q13 0 22 -9t9 -23v-436h430v436q0 14 9 23t23 9z" />
    <glyph glyph-name="I" unicode="I" horiz-adv-x="255" 
d="M102 -260q-14 0 -23 9t-9 23v936q0 14 9 23t23 9q13 0 22 -9t9 -23v-936q0 -14 -9 -23t-22 -9z" />
    <glyph glyph-name="J" unicode="J" horiz-adv-x="675" 
d="M278 -260q-57 0 -107 19.5t-89 57.5q-40 38 -61 86.5t-21 102.5v77q0 13 9 22t23 9q13 0 22 -9t9 -22v-77q0 -42 17 -79t46 -64.5t68.5 -43.5t83.5 -16q45 0 84 16t68 43.5t46 64.5t17 79v702q0 14 9 23t23 9q13 0 22 -9t9 -23v-702q0 -54 -21 -102.5t-61 -86.5
q-39 -38 -89 -57.5t-107 -19.5z" />
    <glyph glyph-name="K" unicode="K" horiz-adv-x="606" 
d="M551 -211q8 -11 5 -23.5t-14 -20.5q-12 -5 -17 -5q-18 0 -27 14l-324 499l-111 -129v-352q0 -14 -9 -23t-22 -9q-14 0 -23 9t-9 23v936q0 14 9 23t23 9q13 0 22 -9t9 -23v-487l90 105h1l347 403q8 10 21 11t23 -8q10 -8 11 -21t-8 -23l-331 -385z" />
    <glyph glyph-name="L" unicode="L" horiz-adv-x="535" 
d="M153 -260q-32 0 -59.5 12t-48.5 33t-33 48.5t-12 59.5v815q0 14 9 23t23 9q13 0 22 -9t9 -23v-815q0 -38 26 -64t64 -26h372q13 0 22 -9t9 -22q0 -14 -9 -23t-22 -9h-372z" />
    <glyph glyph-name="M" unicode="M" horiz-adv-x="748" 
d="M102 -260q-14 0 -23 9t-9 23v936q0 11 6.5 20t17.5 11q11 3 21 -1.5t15 -14.5l218 -415l219 415q5 10 14.5 14.5t20.5 1.5q11 -2 17.5 -11t6.5 -20v-936q0 -14 -9 -23t-23 -9q-13 0 -22 9t-9 23v808l-187 -355q-9 -17 -28 -17q-20 0 -28 17l-187 355v-808q0 -14 -9 -23
t-22 -9z" />
    <glyph glyph-name="N" unicode="N" horiz-adv-x="748" 
d="M595 740q13 0 22 -9t9 -23v-936q0 -11 -6.5 -20t-17.5 -11q-1 -1 -7 -1q-19 0 -28 17l-434 824v-809q0 -14 -9 -23t-22 -9q-14 0 -23 9t-9 23v936v2v1v1v1q1 3 2 5.5t2 4.5v1l1 1l8 9q1 0 1 1q1 0 1 1h1h1q0 1 1 1t1 0.5t1 0.5h1h1q0 1 1 1h1h1l1 1h1h1h2h1h1h1h1h1h1
q4 -1 7 -2t5 -2v-1q7 -3 9 -8l1 -1q0 -1 1 -1v-1l1 -1l433 -824v809q0 14 9 23t23 9z" />
    <glyph glyph-name="O" unicode="O" horiz-adv-x="741" 
d="M343 -260q-54 0 -103.5 13.5t-87.5 37.5q-20 13 -35.5 27t-26.5 31q-25 37 -25 79v624q0 42 25 79q11 17 26.5 31t35.5 27q38 24 87.5 37.5t103.5 13.5t103 -13.5t88 -37.5q20 -13 35 -27t27 -31q25 -39 25 -79v-624q0 -40 -25 -79q-12 -17 -27 -31t-35 -27
q-39 -24 -88 -37.5t-103 -13.5zM343 677q-45 0 -85.5 -10.5t-71.5 -30.5q-28 -18 -43 -39.5t-15 -44.5v-624q0 -23 15 -44.5t43 -39.5q31 -20 71.5 -30.5t85.5 -10.5t85 10.5t72 30.5q58 38 58 84v624q0 47 -58 84q-32 20 -72 30.5t-85 10.5z" />
    <glyph glyph-name="P" unicode="P" horiz-adv-x="627" 
d="M32 -260q-14 0 -23 9t-9 23v468v468q0 14 9 23t23 9h246q57 0 107 -19.5t89 -57.5q40 -38 61 -86.5t21 -102.5t-21 -102t-61 -86q-39 -38 -89 -58t-107 -20h-215v-436q0 -14 -9 -23t-22 -9zM63 677v-406l215 1q45 0 84 16t68 43.5t46 64t17 78.5t-17 79t-46 64.5
t-68 43.5t-84 16h-215z" />
    <glyph glyph-name="Q" unicode="Q" horiz-adv-x="671" 
d="M490 556q0 46 -57 84q-31 20 -71 30.5t-85 10.5t-85.5 -10.5t-71.5 -30.5q-57 -38 -57 -84v-626q0 -48 57 -84q54 -34 125 -40v124q0 13 9 22t23 9q13 0 22 -9t9 -22v-124q71 6 125 40q57 36 57 84v626zM529 634q24 -36 24 -78v-626q0 -42 -24 -79q-23 -33 -62 -59
q-67 -43 -159 -49v-127q0 -13 -9 -22t-22 -9q-14 0 -23 9t-9 22v127q-92 6 -159 49q-39 25 -61 59q-25 37 -25 79v626q0 42 25 78q12 17 26.5 31.5t34.5 27.5q39 25 88 38t103 13q110 0 190 -51q40 -25 62 -59z" />
    <glyph glyph-name="R" unicode="R" horiz-adv-x="621" 
d="M63 271l213 1h1h1q45 0 84 16t68 43t46 64t17 79t-17 79t-46 64.5t-68 43.5t-84 16h-215v-406zM552 -214q6 -11 2.5 -23.5t-15.5 -18.5q-4 -4 -14 -4q-19 0 -28 17l-240 451h-194v-436q0 -14 -9 -23t-22 -9q-14 0 -23 9t-9 23v468v468q0 14 9 23t23 9h246q57 0 107 -19.5
t89 -57.5q40 -38 61 -86.5t21 -102.5t-21 -102t-61 -86q-31 -29 -68 -47.5t-79 -26.5z" />
    <glyph glyph-name="S" unicode="S" horiz-adv-x="617" 
d="M278 -260q-54 0 -103.5 13.5t-87.5 37.5q-20 13 -35.5 27t-26.5 31q-25 37 -25 79q0 13 9 22t23 9q13 0 22 -9t9 -22q0 -23 15 -44.5t43 -39.5q31 -20 71.5 -30.5t85.5 -10.5t85.5 10.5t71.5 30.5q28 18 43 39.5t15 44.5v156q0 23 -15 44.5t-43 39.5q-61 39 -151 41
q-2 0 -3 -0.5t-3 -0.5q-54 0 -103.5 13t-87.5 38q-20 13 -35 27.5t-27 31.5q-25 36 -25 78v156q0 42 25 79q11 17 26.5 31t35.5 27q38 24 87.5 37.5t103.5 13.5t103.5 -13.5t87.5 -37.5q20 -13 35.5 -27t26.5 -31q25 -37 25 -79q0 -13 -9 -22t-23 -9q-13 0 -22 9t-9 22
q0 23 -15 44.5t-43 39.5q-31 20 -71.5 30.5t-85.5 10.5t-85.5 -10.5t-71.5 -30.5q-28 -18 -43 -39.5t-15 -44.5v-156q0 -23 15 -44.5t43 -39.5q30 -19 69 -29.5t82 -10.5h6q54 0 103.5 -13t87.5 -37q41 -26 62 -59q25 -37 25 -79v-156q0 -42 -25 -79q-11 -17 -26.5 -31
t-35.5 -27q-38 -24 -87.5 -37.5t-103.5 -13.5z" />
    <glyph glyph-name="T" unicode="T" horiz-adv-x="520" 
d="M525 740q14 0 23 -9t9 -23q0 -13 -9 -22t-23 -9h-215v-905q0 -14 -9 -23t-23 -9q-13 0 -22 9t-9 23v905h-215q-14 0 -23 9t-9 22q0 14 9 23t23 9h493z" />
    <glyph glyph-name="U" unicode="U" horiz-adv-x="741" 
d="M591 740q13 0 22 -9t9 -23v-702q0 -54 -21 -102.5t-61 -86.5q-39 -38 -89 -57.5t-107 -19.5t-107 19.5t-89 57.5q-40 38 -61 86.5t-21 102.5v702q0 14 9 23t23 9q13 0 22 -9t9 -23v-702q0 -42 17 -79t46 -64.5t68.5 -43.5t83.5 -16q45 0 84 16t68 43.5t46 64.5t17 79v702
q0 14 9 23t23 9z" />
    <glyph glyph-name="V" unicode="V" horiz-adv-x="654" 
d="M278 -260q-24 0 -30 24l-247 936q-3 13 3.5 24t19.5 15q12 3 23.5 -3.5t14.5 -19.5l216 -820l216 820q3 13 14.5 20t24.5 3q12 -3 18.5 -14.5t3.5 -24.5l-246 -936q-6 -24 -31 -24z" />
    <glyph glyph-name="W" unicode="W" horiz-adv-x="901" 
d="M779 739q13 -4 19.5 -15t3.5 -24l-247 -936q-6 -24 -30 -24q-25 0 -31 24l-93 352l-92 -352q-6 -24 -31 -24q-24 0 -30 24l-247 936q-3 13 3.5 24t19.5 15q12 3 23.5 -3.5t14.5 -19.5l216 -820l91 344l-121 460q-4 13 2.5 24t19.5 15q13 3 24.5 -3.5t14.5 -19.5l92 -352
l93 352q3 13 14.5 20t24.5 3q12 -3 18.5 -14.5t3.5 -24.5l-121 -460l91 -344l215 820q3 13 14.5 19.5t24.5 3.5z" />
    <glyph glyph-name="X" unicode="X" horiz-adv-x="617" 
d="M552 -214q6 -11 2.5 -23.5t-15.5 -18.5q-3 -2 -7 -3t-7 -1q-19 0 -28 17l-219 415l-218 -415q-9 -17 -28 -17q-8 0 -15 4q-12 6 -15.5 18.5t2.5 23.5l238 454l-238 454q-6 11 -2.5 23.5t15.5 18.5q11 6 23.5 2.5t19.5 -15.5l218 -415l219 415q6 12 18.5 15.5t23.5 -2.5
q12 -6 15.5 -18.5t-2.5 -23.5l-238 -454z" />
    <glyph glyph-name="Y" unicode="Y" horiz-adv-x="519" 
d="M539 736q12 -6 15.5 -18.5t-2.5 -23.5l-241 -459v-463q0 -14 -9 -23t-22 -9q-14 0 -23 9t-9 23v463l-244 458q-6 12 -2.5 24.5t15.5 18.5q11 6 23.5 2.5t18.5 -15.5l220 -412l218 412q6 12 18.5 15.5t23.5 -2.5z" />
    <glyph glyph-name="Z" unicode="Z" horiz-adv-x="600" 
d="M32 -260q-20 0 -27 15q-11 17 -1 31l468 891h-440q-14 0 -23 9t-9 22q0 14 9 23t23 9h493q16 0 27 -15q8 -18 1 -31l-469 -891h441q13 0 22 -9t9 -22q0 -14 -9 -23t-22 -9h-493z" />
    <glyph glyph-name="backslash" unicode="\" horiz-adv-x="473" 
d="M392 -255q-17 0 -27 16l-365 617q-7 11 -3.5 23t14.5 19t23.5 3.5t19.5 -14.5l365 -617q7 -11 3.5 -23t-14.5 -19q-8 -5 -16 -5z" />
    <glyph glyph-name="asciicircum" unicode="^" horiz-adv-x="505" 
d="M3 397q0 6 3 12l140 305q8 17 27 17t26 -16l151 -303q5 -11 1.5 -22.5t-14.5 -16.5q-11 -6 -23 -2t-17 15l-123 248l-115 -250q-5 -11 -16.5 -15t-22.5 1q-17 8 -17 27z" />
    <glyph glyph-name="underscore" unicode="_" horiz-adv-x="528" 
d="M34 -255q-13 0 -21.5 8.5t-8.5 21.5t8.5 21.5t21.5 8.5h323q13 0 21.5 -8.5t8.5 -21.5t-8.5 -21.5t-21.5 -8.5h-323z" />
    <glyph glyph-name="a" unicode="a" horiz-adv-x="665" 
d="M272 -202q43 0 81.5 15.5t67 42.5t45 63t16.5 77t-16.5 77.5t-45 63.5t-67 42.5t-81.5 15.5q-44 0 -82 -15.5t-66.5 -42.5t-45 -63.5t-16.5 -77.5t16.5 -77t45 -63t66.5 -42.5t82 -15.5zM513 256q13 0 22 -8.5t9 -21.5v-459q0 -13 -9 -22t-22 -9t-22 9t-9 22v64l-18 -19
q-37 -39 -87.5 -57.5t-104.5 -18.5t-103.5 19.5t-88.5 56.5t-59.5 84.5t-20.5 99.5q0 54 20.5 101t59.5 84t88.5 56t103.5 19t104.5 -18t87.5 -57l18 -19v64q0 13 9 21.5t22 8.5z" />
    <glyph glyph-name="b" unicode="b" horiz-adv-x="624" 
d="M278 -197q45 0 84 16t68 43.5t46 64.5t17 79t-17 79t-46 64t-68 43t-84 16q-44 0 -83.5 -16t-68.5 -43t-46 -64t-17 -79t17 -79t46 -64.5t68.5 -43.5t83.5 -16zM474 194q40 -38 61 -86t21 -102t-21 -102.5t-61 -86.5q-39 -38 -89 -57.5t-107 -19.5t-107.5 18.5
t-88.5 58.5l-19 20v-65q0 -14 -9 -23t-22 -9q-14 0 -23 9t-9 23v936q0 14 9 23t23 9q13 0 22 -9t9 -23v-533l19 19q39 39 89 58.5t107 19.5t107 -20t89 -58z" />
    <glyph glyph-name="c" unicode="c" horiz-adv-x="504" 
d="M272 -260q-54 0 -103.5 19.5t-88.5 56.5q-80 75 -80 184t80 184q39 37 88.5 56.5t103.5 19.5q48 0 93 -16t82 -45q10 -8 11.5 -20.5t-6.5 -22.5q-8 -11 -20.5 -12t-23.5 7q-59 47 -136 47q-44 0 -82 -15.5t-66.5 -42.5t-45 -63t-16.5 -77t16.5 -77t45 -63t66.5 -42.5
t82 -15.5q77 0 136 47q11 8 23.5 7t20.5 -12q8 -10 6.5 -22.5t-11.5 -20.5q-37 -29 -82 -45t-93 -16z" />
    <glyph glyph-name="d" unicode="d" horiz-adv-x="680" 
d="M278 -197q45 0 84 16t68 43.5t46 64.5t17 79t-17 79t-46 64t-68 43t-84 16q-44 0 -83.5 -16t-68.5 -43t-46 -64t-17 -79t17 -79t46 -64.5t68.5 -43.5t83.5 -16zM525 740q13 0 22 -9t9 -23v-936q0 -14 -9 -23t-22 -9q-14 0 -23 9t-9 23v65l-19 -20q-38 -40 -88.5 -58.5
t-107.5 -18.5t-107 19.5t-89 57.5q-40 38 -61 86.5t-21 102.5t21 102t61 86q39 38 89 58t107 20t107 -19.5t89 -58.5l19 -19v533q0 14 9 23t23 9z" />
    <glyph glyph-name="e" unicode="e" horiz-adv-x="642" 
d="M272 -260q-54 0 -103.5 19.5t-88.5 56.5q-80 75 -80 184t80 184q39 37 88.5 56.5t103.5 19.5q43 0 83 -12.5t74 -35t59.5 -54.5t39.5 -71q16 -43 16 -87q0 -13 -9 -22t-22 -9h-449q6 -36 24.5 -66.5t46 -53t63 -35t74.5 -12.5q77 0 136 47q11 8 23.5 7t20.5 -12
q8 -10 6.5 -22.5t-11.5 -20.5q-37 -29 -82 -45t-93 -16zM480 31q-2 9 -4.5 18t-5.5 17q-11 30 -31 54t-46 41.5t-57 27t-64 9.5q-39 0 -74.5 -12.5t-63 -35t-46 -53t-24.5 -66.5h416z" />
    <glyph glyph-name="f" unicode="f" horiz-adv-x="299" 
d="M238 740q14 0 23 -9t9 -23q0 -13 -9 -22t-23 -9h-85q-38 0 -64 -26t-26 -64v-315h92q13 0 22 -9.5t9 -22.5t-9 -22.5t-22 -9.5h-92v-436q0 -14 -9 -23t-22 -9q-14 0 -23 9t-9 23v815q0 31 12 59t33 49t48.5 33t59.5 12h85z" />
    <glyph glyph-name="g" unicode="g" horiz-adv-x="677" 
d="M278 -198q45 0 84 16t68 43.5t46 64t17 78.5t-17 79t-46 64.5t-68 43.5t-84 16q-44 0 -83.5 -16t-68.5 -43.5t-46 -64.5t-17 -79t17 -78.5t46 -64t68.5 -43.5t83.5 -16zM525 270q13 0 22 -9t9 -23v-702q0 -54 -21 -102.5t-61 -86.5q-39 -38 -89 -57.5t-107 -19.5
q-63 0 -126 29q-55 27 -96 77q-8 10 -6.5 23t11.5 21q11 8 24 7t21 -12q28 -37 74 -59q48 -23 98 -23q45 0 84 16t68 43.5t46 64.5t17 79v299l-19 -19q-39 -39 -89 -58.5t-107 -19.5t-107 20t-89 58q-40 38 -61 86t-21 102t21 102.5t61 86.5q39 38 89 57.5t107 19.5
t107.5 -18.5t88.5 -58.5l19 -20v65q0 14 9 23t23 9z" />
    <glyph glyph-name="h" unicode="h" horiz-adv-x="629" 
d="M556 -228q0 -14 -9 -23t-22 -9q-14 0 -23 9t-9 23v234q0 42 -17 79t-46 64t-68 43t-84 16q-44 0 -83.5 -16t-68.5 -43t-46 -64t-17 -79v-234q0 -14 -9 -23t-22 -9q-14 0 -23 9t-9 23v936q0 14 9 23t23 9q13 0 22 -9t9 -23v-533l19 19q39 39 89 58.5t107 19.5t107 -20
t89 -58q40 -38 61 -86t21 -102v-234z" />
    <glyph glyph-name="i" unicode="i" horiz-adv-x="253" 
d="M101 -268q-14 0 -23 9t-9 23v454q0 13 9 22.5t23 9.5q13 0 22.5 -9.5t9.5 -22.5v-454q0 -14 -9.5 -23t-22.5 -9zM126 375q0 -11 -7 -18.5t-18 -7.5t-18.5 7.5t-7.5 18.5t7.5 18t18.5 7q25 0 25 -25z" />
    <glyph glyph-name="j" unicode="j" horiz-adv-x="254" 
d="M102 -600q-14 0 -23 9t-9 23v786q0 13 9 22.5t23 9.5q13 0 22.5 -9.5t9.5 -22.5v-786q0 -14 -9.5 -23t-22.5 -9zM127 375q0 -11 -7 -18.5t-18 -7.5t-18.5 7.5t-7.5 18.5t7.5 18t18.5 7q25 0 25 -25z" />
    <glyph glyph-name="k" unicode="k" horiz-adv-x="444" 
d="M403 -208q8 -10 7 -23t-11 -21q-8 -8 -20 -8q-15 0 -24 11l-245 287l-47 -44v-222q0 -14 -9 -23t-22 -9q-14 0 -23 9t-9 23v936q0 14 9 23t23 9q13 0 22 -9t9 -23v-627l28 26l165 156q10 9 23 8.5t22 -9.5q9 -10 8.5 -23t-9.5 -22l-144 -135z" />
    <glyph glyph-name="l" unicode="l" horiz-adv-x="257" 
d="M102 -260q-14 0 -23 9t-9 23v936q0 14 9 23t23 9q13 0 22 -9t9 -23v-936q0 -14 -9 -23t-22 -9z" />
    <glyph glyph-name="m" unicode="m" horiz-adv-x="1208" 
d="M1012 184q80 -75 80 -184v-228q0 -13 -9 -22t-22 -9t-22 9t-9 22v228q0 41 -16.5 77t-45 63t-67 42.5t-81.5 15.5q-44 0 -82 -15.5t-66.5 -42.5t-45 -63t-16.5 -77v-229q0 -13 -9 -22t-22 -9t-22 9t-9 22v229q0 41 -16.5 77t-45 63t-67 42.5t-81.5 15.5q-44 0 -82 -15.5
t-66.5 -42.5t-45 -63t-16.5 -77v-229q0 -13 -9 -22t-22 -9t-22 9t-9 22v458q0 13 9 22t22 9t22 -9t9 -22v-64l18 19q38 39 88 57.5t104 18.5t103.5 -19.5t88.5 -56.5q14 -14 26.5 -29.5t22.5 -33.5q10 18 22.5 33.5t26.5 29.5q39 37 88.5 56.5t103.5 19.5q55 0 104.5 -19.5
t87.5 -56.5z" />
    <glyph glyph-name="n" unicode="n" horiz-adv-x="726" 
d="M530 180q80 -75 80 -184v-229q0 -13 -9 -22t-22 -9t-22 9t-9 22v229q0 41 -16.5 77t-45 63t-67 42.5t-81.5 15.5q-44 0 -82 -15.5t-66.5 -42.5t-45 -63t-16.5 -77v-229q0 -13 -9 -22t-22 -9t-22 9t-9 22v458q0 13 9 22t22 9t22 -9t9 -22v-64l18 19q37 39 87.5 57.5
t104.5 18.5t103.5 -19.5t88.5 -56.5z" />
    <glyph glyph-name="o" unicode="o" horiz-adv-x="661" 
d="M272 -260q-54 0 -103.5 19.5t-88.5 56.5q-80 75 -80 184t80 184q39 37 88.5 56.5t103.5 19.5t103.5 -19.5t88.5 -56.5q80 -75 80 -184t-80 -184q-39 -37 -88.5 -56.5t-103.5 -19.5zM272 198q-44 0 -82 -15.5t-66.5 -42.5t-45 -63t-16.5 -77t16.5 -77t45 -63t66.5 -42.5
t82 -15.5q43 0 81.5 15.5t67 42.5t45 63t16.5 77t-16.5 77t-45 63t-67 42.5t-81.5 15.5z" />
    <glyph glyph-name="p" unicode="p" horiz-adv-x="600" 
d="M278 -198q45 0 84 16t68 43.5t46 64t17 78.5t-17 79t-46 64.5t-68 43.5t-84 16q-44 0 -83.5 -16t-68.5 -43.5t-46 -64.5t-17 -79t17 -78.5t46 -64t68.5 -43.5t83.5 -16zM474 193q40 -38 61 -86.5t21 -102.5t-21 -102t-61 -86q-39 -38 -89 -58t-107 -20t-107 19.5
t-89 58.5l-19 19v-533q0 -14 -9 -23t-22 -9q-14 0 -23 9t-9 23v936q0 14 9 23t23 9q13 0 22 -9t9 -23v-65l19 20q38 40 88.5 58.5t107.5 18.5t107 -19.5t89 -57.5z" />
    <glyph glyph-name="q" unicode="q" horiz-adv-x="677" 
d="M278 -198q45 0 84 16t68 43.5t46 64t17 78.5t-17 79t-46 64.5t-68 43.5t-84 16q-44 0 -83.5 -16t-68.5 -43.5t-46 -64.5t-17 -79t17 -78.5t46 -64t68.5 -43.5t83.5 -16zM525 270q13 0 22 -9t9 -23v-936q0 -14 -9 -23t-22 -9q-14 0 -23 9t-9 23v533l-19 -19
q-39 -39 -89 -58.5t-107 -19.5t-107 20t-89 58q-40 38 -61 86t-21 102t21 102.5t61 86.5q39 38 89 57.5t107 19.5t107.5 -18.5t88.5 -58.5l19 -20v65q0 14 9 23t23 9z" />
    <glyph glyph-name="r" unicode="r" horiz-adv-x="497" 
d="M462 182q9 -8 9 -21t-8 -22q-9 -10 -21.5 -10.5t-21.5 8.5q-62 57 -148 57q-44 0 -82 -15.5t-66.5 -42.5t-45 -63t-16.5 -77v-229q0 -13 -9 -22t-22 -9t-22 9t-9 22v458q0 13 9 22t22 9t22 -9t9 -22v-64l18 19q37 39 87.5 57.5t104.5 18.5t103 -19t87 -55z" />
    <glyph glyph-name="s" unicode="s" horiz-adv-x="502" 
d="M197 -262q-38 0 -72 9.5t-62 26.5q-62 39 -62 99q0 13 8.5 22t21.5 9t21.5 -9t8.5 -22q0 -8 6 -21t29 -27q20 -13 46 -20t55 -7t55 7t46 20q23 14 29 27t6 21v26q0 8 -6 21t-29 28q-19 11 -44 18t-53 8q-1 -1 -4 -1q-38 0 -72 9.5t-62 26.5q-62 39 -62 99v25q0 61 62 100
q28 18 62 26.5t72 8.5q78 0 133 -35q63 -41 63 -100q0 -12 -9 -21t-21 -9q-13 0 -21.5 9t-8.5 21q0 8 -6 21.5t-29 27.5q-41 26 -101 26t-101 -26q-23 -14 -29 -27.5t-6 -21.5v-25q0 -8 6 -21t29 -27q19 -12 44 -19t52 -7h5q38 0 71.5 -9.5t61.5 -26.5q63 -40 63 -99v-26
q0 -59 -63 -99q-28 -17 -61.5 -26.5t-71.5 -9.5z" />
    <glyph glyph-name="t" unicode="t" horiz-adv-x="391" 
d="M340 273q13 0 22 -9t9 -22t-9 -22t-22 -9h-160v-440q0 -13 -9 -22t-21 -9q-13 0 -22 9t-9 22v440h-88q-13 0 -22 9t-9 22t9 22t22 9h88v197q0 12 9 21t22 9q12 0 21 -9t9 -21v-197h160z" />
    <glyph glyph-name="u" unicode="u" horiz-adv-x="732" 
d="M610 229v-229v-229q0 -13 -9 -22t-22 -9t-22 9t-9 22v64l-18 -19q-37 -39 -87.5 -57.5t-104.5 -18.5t-103.5 19.5t-88.5 56.5q-80 75 -80 184v229q0 13 9 22t22 9t22 -9t9 -22v-229q0 -41 16.5 -77t45 -63t66.5 -42.5t82 -15.5q43 0 81.5 15.5t67 42.5t45 63t16.5 77v229
q0 13 9 22t22 9q12 0 20.5 -8t10.5 -20v-3z" />
    <glyph glyph-name="v" unicode="v" horiz-adv-x="584" 
d="M240 -260q-21 0 -28 18l-209 458q-5 12 -0.5 24t15.5 17q12 5 24 0.5t17 -15.5l181 -397l180 397q5 11 17.5 15.5t23.5 -0.5q12 -5 16.5 -17t-0.5 -24l-209 -458q-8 -18 -28 -18z" />
    <glyph glyph-name="w" unicode="w" horiz-adv-x="881" 
d="M759 257q11 -5 15.5 -17t-0.5 -24l-209 -458q-8 -18 -28 -18q-21 0 -28 18l-121 264l-120 -264q-8 -18 -28 -18q-21 0 -28 18l-209 458q-5 12 -0.5 24t15.5 17q12 5 24 0.5t17 -15.5l181 -397l114 252l-54 119q-5 12 -0.5 24t15.5 17q12 5 24 0.5t17 -15.5l32 -71l32 71
q5 11 17.5 15.5t23.5 -0.5q12 -5 16.5 -17t-0.5 -24l-55 -119l115 -252l181 397q5 11 17 15.5t24 -0.5z" />
    <glyph glyph-name="x" unicode="x" horiz-adv-x="520" 
d="M471 -208q9 -10 8.5 -22.5t-10.5 -21.5q-11 -8 -20 -8q-14 0 -23 10l-186 204l-186 -204q-9 -10 -23 -10q-10 0 -21 8q-10 9 -10 21.5t8 22.5l190 208l-190 208q-8 10 -8 22.5t10 21.5q10 8 22.5 8t21.5 -10l186 -204l186 204q8 10 21 10t22 -8q10 -9 10.5 -21.5
t-8.5 -22.5l-189 -208z" />
    <glyph glyph-name="y" unicode="y" horiz-adv-x="656" 
d="M539 256q12 -6 15.5 -18.5t-2.5 -23.5l-244 -466l-248 -471q-9 -17 -28 -17q-8 0 -15 4q-12 6 -15.5 18.5t2.5 23.5l240 457l-240 451q-6 11 -2.5 23.5t15.5 18.5q11 6 23.5 2.5t18.5 -15.5l220 -412l218 412q6 12 18.5 15.5t23.5 -2.5z" />
    <glyph glyph-name="z" unicode="z" horiz-adv-x="508" 
d="M31 -260q-21 0 -28 18q-8 20 5 34l371 406h-348q-13 0 -22 9t-9 22t9 22t22 9h418q20 0 28 -18q8 -20 -6 -34l-370 -406h348q13 0 21.5 -9t8.5 -22t-8.5 -22t-21.5 -9h-418z" />
    <glyph glyph-name="bar" unicode="|" horiz-adv-x="205" 
d="M32 -360q-14 0 -23 9t-9 23v1136q0 14 9 23t23 9q13 0 22 -9t9 -23v-1136q0 -14 -9 -23t-22 -9z" />
    <glyph glyph-name="degree" unicode="&#xb0;" horiz-adv-x="694" 
d="M439 518q-23 0 -43 9t-35 24t-24 35t-9 43q0 22 9 42.5t24 35.5t35 24t43 9t43.5 -9t35.5 -24t23.5 -35.5t8.5 -42.5q0 -23 -8.5 -43t-23.5 -35t-35.5 -24t-43.5 -9zM439 678q-20 0 -34 -14.5t-14 -34.5t14 -34.5t34 -14.5t34.5 14.5t14.5 34.5t-14.5 34.5t-34.5 14.5z
" />
    <glyph glyph-name="ordmasculine" unicode="&#xba;" horiz-adv-x="694" 
d="M439 518q-23 0 -43 9t-35 24t-24 35t-9 43q0 22 9 42.5t24 35.5t35 24t43 9t43.5 -9t35.5 -24t23.5 -35.5t8.5 -42.5q0 -23 -8.5 -43t-23.5 -35t-35.5 -24t-43.5 -9zM439 678q-20 0 -34 -14.5t-14 -34.5t14 -34.5t34 -14.5t34.5 14.5t14.5 34.5t-14.5 34.5t-34.5 14.5z
" />
    <glyph glyph-name="questiondown" unicode="&#xbf;" horiz-adv-x="519" 
d="M200 577q13 0 22 -9t9 -22v-423q0 -13 -9 -22t-22 -9q-29 0 -56.5 -7t-47.5 -20q-23 -14 -29 -28t-6 -22v-139q0 -8 6 -21.5t29 -28.5q20 -13 47.5 -19.5t56.5 -6.5t56 6.5t47 19.5q23 15 29 28.5t6 21.5v50q0 13 9 22t22 9t22 -9t9 -22v-50q0 -30 -16.5 -56t-47.5 -46
q-28 -18 -63 -27t-73 -9t-73.5 9.5t-62.5 26.5q-64 40 -64 102v139q0 62 64 102q44 29 105 35v394q0 13 9 22t22 9zM236 662q0 -16 -10.5 -26.5t-25.5 -10.5t-26 10.5t-11 26.5q0 15 11 25.5t26 10.5t25.5 -10.5t10.5 -25.5z" />
    <glyph glyph-name="Agrave" unicode="&#xc0;" horiz-adv-x="709" 
d="M396 810q-10 -10 -23 -9.5t-22 9.5l-187 187q-9 9 -9.5 22t9.5 23t23 9.5t22 -9.5l187 -187q9 -9 9.5 -22t-9.5 -23zM496 266v318q0 38 -26 64t-64 26h-252q-38 0 -64 -26t-26 -64v-318h432zM406 738q32 0 60 -12t49 -33t33 -49t12 -60v-821q0 -14 -9 -23t-23 -9
q-13 0 -22.5 9t-9.5 23v440h-432v-440q0 -14 -9.5 -23t-22.5 -9q-14 0 -23 9t-9 23v821q0 32 12 60t33 49t49 33t60 12h252z" />
    <glyph glyph-name="Aacute" unicode="&#xc1;" horiz-adv-x="710" 
d="M154 740q-32 0 -60 -12t-49 -33t-33 -49t-12 -60v-823q0 -14 9 -23t23 -9q13 0 22.5 9t9.5 23v441h433v-441q0 -14 9.5 -23t22.5 -9q14 0 23 9t9 23v823q0 32 -12 60t-33 49t-49 33t-60 12h-253zM64 268v318q0 38 26 64t64 26h253q38 0 64 -26t26 -64v-318h-433zM165 813
q-10 10 -9.5 22.5t9.5 22.5l186 187q9 10 22.5 10t23.5 -10t9.5 -23t-9.5 -22l-187 -187q-10 -10 -22.5 -10t-22.5 10z" />
    <glyph glyph-name="Acircumflex" unicode="&#xc2;" horiz-adv-x="709" 
d="M154 738q-32 0 -60 -12t-49 -33t-33 -49t-12 -60v-821q0 -14 9 -23t23 -9q13 0 22.5 9t9.5 23v440h433v-440q0 -14 9 -23t22 -9q14 0 23 9t9 23v821q0 32 -12 60t-33 49t-49 33t-60 12h-252zM64 266v318q0 38 26 64.5t64 26.5h252q38 0 64.5 -26.5t26.5 -64.5v-318h-433z
M90 844q0 12 9 21l153 166q7 10 22 10q14 0 23 -9l163 -163q10 -10 10 -22.5t-10 -22.5t-22.5 -10t-22.5 10l-139 139l-130 -141q-9 -10 -22 -10.5t-23 8.5q-11 11 -11 24z" />
    <glyph glyph-name="Atilde" unicode="&#xc3;" horiz-adv-x="711" 
d="M155 742q-32 0 -60.5 -12t-49.5 -33t-33 -49t-12 -60v-825q0 -14 9 -23t23 -9t23 9t9 23v442h435v-442q0 -14 9 -23t22 -9q14 0 23 9t9 23v825q0 32 -12 60t-33 49t-49 33t-60 12h-253zM64 269v319q0 38 26.5 64t64.5 26h253q38 0 64.5 -26t26.5 -64v-319h-435zM366 806
q-34 0 -63 15.5t-48 44.5h-1q-11 18 -31 26.5t-40 3.5q-21 -5 -36 -20t-19 -36q-2 -13 -13 -20.5t-24 -4.5q-13 2 -21 12.5t-5 24.5q8 42 35.5 70t69.5 36t78.5 -7t59.5 -50v-1q12 -17 31.5 -25.5t40.5 -3.5t35.5 19.5t18.5 35.5q2 14 13 21t24 5q14 -2 21 -13t5 -24
q-8 -42 -35.5 -70.5t-69.5 -36.5q-7 -2 -13.5 -2h-12.5z" />
    <glyph glyph-name="Adieresis" unicode="&#xc4;" horiz-adv-x="705" 
d="M153 742q-32 0 -59.5 -12t-48.5 -32.5t-33 -48.5t-12 -60v-816q0 -14 9 -23t23 -9q13 0 22 9t9 23v437h431v-437q0 -14 9 -23t22 -9q14 0 23 9t9 23v816q0 32 -12 60t-33 48.5t-49 32.5t-59 12h-251zM63 273v316q0 19 7 35.5t19.5 28.5t29 19t34.5 7h251q18 0 34.5 -7
t29 -19t19.5 -28.5t7 -35.5v-316h-431zM140 891q16 0 26.5 -11t10.5 -27t-10.5 -26.5t-26.5 -10.5t-27 10.5t-11 26.5t11 27t27 11zM417 891q16 0 27 -11t11 -27t-11 -26.5t-27 -10.5t-27 10.5t-11 26.5t11 27t27 11z" />
    <glyph glyph-name="Egrave" unicode="&#xc8;" horiz-adv-x="631" 
d="M396 810q-10 -10 -22.5 -9.5t-22.5 9.5l-187 186q-9 9 -9 22.5t9 22.5q10 9 23 9t22 -9l187 -186q10 -9 9.5 -22.5t-9.5 -22.5zM528 -206q14 0 23 -9t9 -23q0 -13 -9 -22.5t-23 -9.5h-374q-32 0 -60 12t-49 33t-33 49t-12 60v699q0 32 12 60t33 49t49 33t60 12h374
q14 0 23 -9t9 -23q0 -13 -9 -22t-23 -9h-374q-38 0 -64 -26.5t-26 -64.5v-317h340q14 0 23 -9.5t9 -22.5q0 -14 -9 -23t-23 -9h-340v-318q0 -18 7 -34.5t19 -29t28.5 -19.5t35.5 -7h374z" />
    <glyph glyph-name="Eacute" unicode="&#xc9;" horiz-adv-x="621" 
d="M153 -196q-19 0 -35.5 7t-28.5 19t-19 28.5t-7 34.5v315h338q13 0 22.5 9.5t9.5 22.5t-9.5 22.5t-22.5 9.5h-338v315q0 18 7 34.5t19 29t28.5 19.5t35.5 7h371q14 0 23 9t9 22q0 14 -9 23t-23 9h-371q-32 0 -60 -12t-48.5 -33t-32.5 -49t-12 -59v-694q0 -32 12 -59.5
t32.5 -48.5t48.5 -33t60 -12h371q14 0 23 9.5t9 22.5t-9 22.5t-23 9.5h-371zM163 812q-9 9 -9 22t9 22l185 185q9 9 22 9t23 -9q9 -9 9.5 -22.5t-9.5 -22.5l-185 -184q-10 -10 -23 -10t-22 10z" />
    <glyph glyph-name="Ecircumflex" unicode="&#xca;" horiz-adv-x="632" 
d="M154 -206q-19 0 -35.5 7t-28.5 19.5t-19 29t-7 34.5v318h340q14 0 23 9t9 23t-9 23t-23 9h-340v318q0 18 7 34.5t19 29t28.5 19.5t35.5 7h374q14 0 23 9t9 23q0 13 -9 22.5t-23 9.5h-374q-32 0 -60 -12t-49 -33t-33 -49t-12 -60v-700q0 -32 12 -60t33 -49t49 -33t60 -12
h374q14 0 23 9.5t9 22.5q0 14 -9 23t-23 9h-374zM90 843q0 13 9 22l153 165q7 10 22 10q14 0 23 -9l163 -163q10 -10 10 -22.5t-10 -22.5q-9 -9 -22.5 -9.5t-22.5 9.5l-139 140l-130 -142q-8 -10 -21.5 -10t-23.5 9q-11 9 -11 23z" />
    <glyph glyph-name="Edieresis" unicode="&#xcb;" horiz-adv-x="622" 
d="M153 -196q-18 0 -34.5 7t-29 19t-19.5 28.5t-7 35.5v316h339q13 0 22 9t9 22q0 14 -9 23t-22 9h-339v316q0 19 7 35.5t19.5 28.5t29 19t34.5 7h372q14 0 23 9t9 22q0 14 -9 23t-23 9h-372q-32 0 -59.5 -12t-48.5 -33t-33 -49t-12 -59v-695q0 -32 12 -60t33 -48.5
t48.5 -32.5t59.5 -12h372q14 0 23 9t9 22q0 14 -9 23t-23 9h-372zM178 891q15 0 26 -11t11 -27t-11 -27t-26 -11q-16 0 -27 11t-11 27t11 27t27 11zM455 891q16 0 27 -11t11 -27t-11 -27t-27 -11t-27 11t-11 27t11 27t27 11z" />
    <glyph glyph-name="Igrave" unicode="&#xcc;" horiz-adv-x="335" 
d="M241 820q-10 -10 -22.5 -10t-22.5 10l-186 186q-10 10 -9.5 23t9.5 22q9 10 22 10t23 -10l186 -186q10 -10 10 -22.5t-10 -22.5zM155 -260q-13 0 -22.5 9.5t-9.5 22.5v943q0 13 9.5 22.5t22.5 9.5q14 0 23 -9.5t9 -22.5v-943q0 -13 -9 -22.5t-23 -9.5z" />
    <glyph glyph-name="Iacute" unicode="&#xcd;" horiz-adv-x="275" 
d="M95 -270q-14 0 -23 9.5t-9 22.5v943q0 13 9 22.5t23 9.5q13 0 22.5 -9.5t9.5 -22.5v-943q0 -13 -9.5 -22.5t-22.5 -9.5zM9 810q-10 10 -10 22.5t10 22.5l186 186q10 10 23 10t22 -10q9 -9 9.5 -22t-9.5 -23l-186 -186q-10 -10 -22.5 -10t-22.5 10z" />
    <glyph glyph-name="Ntilde" unicode="&#xd1;" horiz-adv-x="706" 
d="M526 744q-13 0 -22.5 -9t-9.5 -23v-811l-434 826l-1 1l-1 1v1l-1 1l-4 4l-4 4h-1q-7 4 -12 4h-1v1h-2h-1h-2h-1l-1 -1h-1h-1h-1h-1h-1v-1h-1h-1q-1 0 -1 -1h-2l-1 -1q-1 0 -1 -1h-1h-1v-1h-1q-7 -7 -8 -9v-1h-1v-1q-1 -2 -2 -4.5t-2 -5.5v-1v-1v-1v-1v-1v-940
q0 -13 9 -22t23 -9q13 0 22 9t9 22v812l435 -827q8 -16 28 -16h8q24 6 24 31v940q0 13 -9 22.5t-23 9.5zM363 807q-33 0 -62.5 15t-48.5 44v1q-11 17 -30.5 25.5t-40.5 3.5q-20 -5 -35 -19.5t-19 -35.5q-2 -13 -12.5 -21t-24.5 -5q-13 2 -20 13t-5 24q8 42 35 70t69 36
q40 8 76.5 -7.5t59.5 -49.5l1 -1q11 -17 30.5 -25.5t40.5 -3.5q20 5 35 20t19 35q2 14 12.5 21t24.5 5q13 -2 20 -13t5 -24q-8 -42 -36 -70t-68 -36q-7 -2 -13.5 -2h-12.5z" />
    <glyph glyph-name="Ograve" unicode="&#xd2;" horiz-adv-x="681" 
d="M396 810q-10 -10 -22.5 -9.5t-22.5 9.5l-187 186q-9 9 -9 22.5t9 22.5q10 9 23 9t22 -9l187 -186q10 -9 9.5 -22.5t-9.5 -22.5zM280 674q-45 0 -86 -10.5t-72 -30.5q-58 -37 -58 -85v-629q0 -47 58 -84q31 -20 72 -30.5t86 -10.5t86 10.5t72 30.5q58 37 58 84v629
q0 48 -58 85q-31 20 -72 30.5t-86 10.5zM280 -270q-54 0 -104 13t-88 38q-20 13 -35.5 28t-27.5 32q-25 36 -25 78v629q0 42 25 79q20 31 63 59q38 24 88 37.5t104 13.5t104 -13t89 -38q40 -25 62 -59q25 -37 25 -79v-629q0 -42 -25 -78q-12 -17 -27 -32t-35 -28
q-39 -25 -89 -38t-104 -13z" />
    <glyph glyph-name="Oacute" unicode="&#xd3;" horiz-adv-x="681" 
d="M280 -270q-54 0 -104 13t-89 38q-20 13 -35 28t-27 32q-25 36 -25 78v629q0 42 25 79q22 34 62 59q39 25 89 38t104 13t104 -13.5t88 -37.5q43 -28 63 -59q25 -37 25 -79v-629q0 -42 -25 -78q-12 -17 -27.5 -32t-35.5 -28q-38 -25 -88 -38t-104 -13zM280 674
q-45 0 -86 -10.5t-72 -30.5q-58 -37 -58 -85v-629q0 -47 58 -84q31 -20 72 -30.5t86 -10.5t86 10.5t72 30.5q58 37 58 84v629q0 48 -58 85q-31 20 -72 30.5t-86 10.5zM164 810q-9 9 -9.5 22.5t9.5 22.5l187 186q9 9 22 9t23 -9q9 -9 9 -22.5t-9 -22.5l-187 -186
q-10 -9 -22.5 -9.5t-22.5 9.5z" />
    <glyph glyph-name="Ocircumflex" unicode="&#xd4;" horiz-adv-x="685" 
d="M282 -270q-55 0 -105 13.5t-89 38.5q-42 26 -63 59q-25 37 -25 80v634q0 42 25 79q22 34 63 60q39 25 89 38t105 13t105 -13t89 -38q40 -26 63 -60q25 -37 25 -79v-634q0 -43 -25 -80q-21 -33 -63 -59q-39 -25 -89 -38.5t-105 -13.5zM282 681q-46 0 -87 -10.5t-73 -30.5
q-28 -18 -43 -40t-15 -45v-634q0 -23 15 -45t43 -40q32 -20 73 -31t87 -11t87 11t73 31q58 37 58 85v634q0 48 -58 85q-32 20 -73 30.5t-87 10.5zM91 852q0 12 9 21l154 167q7 10 22 10t24 -9l164 -164q10 -10 10 -23t-10 -23t-23 -9.5t-22 9.5l-141 141l-131 -142
q-9 -10 -22.5 -10.5t-23.5 8.5q-10 10 -10 24z" />
    <glyph glyph-name="Otilde" unicode="&#xd5;" horiz-adv-x="678" 
d="M278 -259q-54 0 -103 13t-88 37q-39 26 -62 59q-25 37 -25 79v625q0 42 25 79q22 33 62 58q39 25 88 38t103 13t103.5 -13t88.5 -38q40 -25 62 -58q25 -37 25 -79v-625q0 -42 -25 -79q-23 -33 -62 -59q-39 -24 -88.5 -37t-103.5 -13zM278 679q-45 0 -85.5 -10.5
t-71.5 -30.5q-28 -18 -43 -39.5t-15 -44.5v-625q0 -23 15 -44.5t43 -39.5q31 -20 71.5 -30.5t85.5 -10.5t85.5 10.5t72.5 30.5q28 17 43 39t15 45v625q0 23 -15 44.5t-43 39.5q-32 20 -72.5 30.5t-85.5 10.5zM140 891q16 0 26.5 -11t10.5 -27t-10.5 -27t-26.5 -11t-27 11
t-11 27t11 27t27 11zM417 891q16 0 27 -11t11 -27t-11 -27t-27 -11t-27 11t-11 27t11 27t27 11z" />
    <glyph glyph-name="Ugrave" unicode="&#xd9;" horiz-adv-x="701" 
d="M396 810q-10 -10 -22.5 -9.5t-22.5 9.5l-187 186q-9 9 -9 22.5t9 22.5q10 9 23 9t22 -9l187 -186q10 -9 9.5 -22.5t-9.5 -22.5zM32 737q-14 0 -23 -9t-9 -23v-707q0 -54 21 -102.5t62 -87.5q40 -38 90 -58t107 -20t107 20t90 58q83 80 83 190v707q0 14 -9 23t-23 9
q-13 0 -22.5 -9t-9.5 -23v-707q0 -42 -17 -79.5t-46.5 -65t-68.5 -43.5t-84 -16t-84 16t-68.5 43.5t-46.5 65t-17 79.5v707q0 14 -9.5 23t-22.5 9z" />
    <glyph glyph-name="Uacute" unicode="&#xda;" horiz-adv-x="701" 
d="M528 737q-13 0 -22.5 -9t-9.5 -23v-707q0 -42 -17 -79.5t-46.5 -65t-68.5 -43.5t-84 -16t-84 16t-68.5 43.5t-46.5 65t-17 79.5v707q0 14 -9.5 23t-22.5 9q-14 0 -23 -9t-9 -23v-707q0 -54 21 -102.5t62 -87.5q40 -38 90 -58t107 -20t107 20t90 58q83 80 83 190v707
q0 14 -9 23t-23 9zM164 810q-9 9 -9.5 22.5t9.5 22.5l187 186q9 9 22 9t23 -9q9 -9 9 -22.5t-9 -22.5l-187 -186q-10 -9 -22.5 -9.5t-22.5 9.5z" />
    <glyph glyph-name="Udieresis" unicode="&#xdc;" horiz-adv-x="697" 
d="M525 742q-13 0 -22 -9t-9 -23v-703q0 -42 -17 -79t-46.5 -64.5t-68.5 -43.5t-84 -16q-44 0 -83.5 16t-68.5 43.5t-46 64.5t-17 79v703q0 14 -9 23t-22 9q-14 0 -23 -9t-9 -23v-703q0 -54 21 -102.5t61 -86.5t89.5 -57.5t106.5 -19.5t107 19.5t90 57.5t61 86.5t21 102.5
v703q0 14 -9 23t-23 9zM140 891q16 0 26.5 -11t10.5 -27t-10.5 -27t-26.5 -11t-27 11t-11 27t11 27t27 11zM417 891q16 0 27 -11t11 -27t-11 -27t-27 -11t-27 11t-11 27t11 27t27 11z" />
    <glyph glyph-name="Yacute" unicode="&#xdd;" horiz-adv-x="668" 
d="M543 734q-12 6 -24.5 2t-18.5 -16l-219 -415l-221 415q-6 12 -19 16t-24 -2q-12 -7 -16 -19.5t3 -24.5l246 -461v-467q0 -13 9 -22.5t23 -9.5q13 0 22 9.5t9 22.5v467l243 462q6 11 2.5 23.5t-15.5 19.5zM164 810q-9 9 -9.5 22.5t9.5 22.5l187 186q9 9 22 9t23 -9
q9 -9 9 -22.5t-9 -22.5l-187 -186q-10 -9 -22.5 -9.5t-22.5 9.5z" />
    <glyph glyph-name="agrave" unicode="&#xe0;" horiz-adv-x="701" 
d="M280 -201q45 0 84.5 16t69 43.5t46.5 65t17 79.5t-17 79.5t-46.5 65t-69 43.5t-84.5 16t-84 -16t-68.5 -43.5t-46.5 -65t-17 -79.5t17 -79.5t46.5 -65t68.5 -43.5t84 -16zM529 271q13 0 22.5 -9t9.5 -23v-472q0 -14 -9.5 -23t-22.5 -9q-14 0 -23 9t-9 23v66l-19 -20
q-38 -40 -89.5 -59t-108.5 -19t-107 20t-90 58q-42 39 -62.5 87.5t-20.5 102.5t20.5 102.5t62.5 87.5q40 38 90 58t107 20t108.5 -19t89.5 -59l19 -20v66q0 14 9 23t23 9zM435 374q-9 -9 -22.5 -9.5t-22.5 9.5l-186 187q-9 10 -9.5 22.5t9.5 22.5q9 9 22.5 9.5t22.5 -9.5
l186 -187q9 -10 9.5 -22.5t-9.5 -22.5z" />
    <glyph glyph-name="aacute" unicode="&#xe1;" horiz-adv-x="711" 
d="M165 374q-10 10 -9.5 22.5t9.5 22.5l186 187q9 10 22.5 9.5t22.5 -9.5q10 -10 9.5 -22.5t-9.5 -22.5l-186 -187q-9 -10 -22.5 -9.5t-22.5 9.5zM529 271q-14 0 -23 -9t-9 -23v-66l-19 20q-38 40 -89.5 59t-108.5 19t-107 -20t-90 -58q-42 -39 -62.5 -87.5t-20.5 -102.5
t20.5 -102.5t62.5 -87.5q40 -38 90 -58t107 -20t108.5 19t89.5 59l19 20v-66q0 -14 9 -23t23 -9q13 0 22.5 9t9.5 23v472q0 14 -9.5 23t-22.5 9zM280 -201q-45 0 -84 16t-68.5 43.5t-46.5 65t-17 79.5t17 79.5t46.5 65t68.5 43.5t84 16t84.5 -16t69 -43.5t46.5 -65t17 -79.5
t-17 -79.5t-46.5 -65t-69 -43.5t-84.5 -16z" />
    <glyph glyph-name="acircumflex" unicode="&#xe2;" horiz-adv-x="712" 
d="M91 407q0 14 8 22l153 165q8 9 23 11q13 0 23 -10l163 -163q9 -9 9 -22t-9 -23q-9 -9 -22.5 -9t-22.5 9l-140 140l-130 -142q-8 -10 -21.5 -10t-23.5 9t-10 23zM529 271q-14 0 -23 -9t-9 -23v-66l-19 20q-38 40 -89.5 59t-108.5 19t-107 -20t-90 -58q-42 -39 -62.5 -87.5
t-20.5 -102.5t20.5 -102.5t62.5 -87.5q40 -38 90 -58t107 -20t108 19.5t90 58.5l19 19v-66q0 -13 9 -22t23 -9t23 9t9 22v473q0 14 -9 23t-23 9zM280 -202q-45 0 -84 16t-68.5 44t-46.5 65.5t-17 79.5t17 79t46.5 65t68.5 44t84 16t84.5 -16t69 -44t46.5 -65t17 -79
t-17 -79.5t-46.5 -65.5t-69 -44t-84.5 -16z" />
    <glyph glyph-name="atilde" unicode="&#xe3;" horiz-adv-x="705" 
d="M367 368q-33 0 -62.5 16t-49.5 45q-12 18 -31.5 26.5t-40.5 3.5t-35.5 -20t-18.5 -36q-2 -13 -13 -21t-25 -5q-13 2 -20.5 13t-4.5 25q8 42 35.5 70.5t69.5 36.5t78.5 -7.5t59.5 -50.5q12 -18 31.5 -26.5t40.5 -3.5t36 20t19 36q2 13 13 20t24 5q14 -3 21.5 -13t4.5 -24
q-8 -42 -35.5 -70.5t-69.5 -36.5q-14 -3 -27 -3zM532 274q-13 0 -22.5 -9t-9.5 -23v-66l-19 20q-38 40 -90 59t-109 19t-107 -19.5t-92 -58.5q-40 -38 -61.5 -87.5t-21.5 -104.5q0 -54 21.5 -103.5t61.5 -87.5q84 -79 199 -79q57 0 109 19.5t90 59.5l19 20v-67
q0 -13 9.5 -22.5t22.5 -9.5q14 0 23.5 9.5t9.5 22.5v476q0 14 -9.5 23t-23.5 9zM282 -201q-45 0 -84.5 16t-69.5 44t-47 65.5t-17 79.5q0 43 17 80.5t47 65.5t69.5 44t84.5 16t85 -16t69.5 -44t46.5 -65.5t17 -80.5q0 -42 -17 -79.5t-46.5 -65.5t-69.5 -44t-85 -16z" />
    <glyph glyph-name="adieresis" unicode="&#xe4;" horiz-adv-x="704" 
d="M141 454q16 0 27.5 -11t11.5 -27t-11.5 -27t-27.5 -11t-27 11t-11 27t11 27t27 11zM422 454q16 0 27 -11t11 -27t-11 -27t-27 -11t-27 11t-11 27t11 27t27 11zM532 273q-14 0 -23 -9t-9 -23v-66l-19 20q-39 41 -90.5 59.5t-108.5 18.5t-108 -20t-91 -58t-61.5 -87.5
t-21.5 -103.5q0 -55 21.5 -104.5t61.5 -87.5t91 -58t108 -20q115 0 199 78l19 21v-67q0 -14 9 -23t23 -9q13 0 22.5 9t9.5 23v475q0 14 -9.5 23t-22.5 9zM282 -202q-45 0 -84.5 16t-69.5 44t-47 65.5t-17 80.5q0 42 17 79.5t47 65.5t69.5 44t84.5 16t84.5 -16t69.5 -44
t47 -65.5t17 -79.5q0 -43 -17 -80.5t-47 -65.5t-69.5 -44t-84.5 -16z" />
    <glyph glyph-name="egrave" unicode="&#xe8;" horiz-adv-x="657" 
d="M64 34q6 35 24.5 65.5t46 53t62.5 35t74 12.5q33 0 64 -9.5t57 -27t45.5 -41.5t30.5 -54q3 -8 5.5 -16.5t3.5 -17.5h-413zM271 -256q48 0 92.5 16t81.5 45q10 8 11.5 20.5t-6.5 22.5t-20.5 12t-23.5 -7q-29 -23 -63.5 -35t-71.5 -12q-39 0 -74 12.5t-62.5 35t-46 53
t-24.5 65.5h447q13 0 22 9t9 22q0 23 -4 44.5t-12 42.5q-14 39 -40 70.5t-59.5 54t-73.5 35t-82 12.5q-54 0 -103.5 -19.5t-87.5 -55.5q-80 -75 -80 -184q0 -52 20.5 -99t59.5 -84q38 -36 87.5 -56t103.5 -20zM411 362q-9 -9 -21.5 -9t-21.5 9l-181 180q-9 9 -9 21.5t9 21.5
t22 9t22 -9l180 -180q9 -9 9 -21.5t-9 -21.5z" />
    <glyph glyph-name="eacute" unicode="&#xe9;" horiz-adv-x="655" 
d="M159 362q-9 9 -9 21.5t9 21.5l180 180q9 9 22 9t22 -9t9 -21.5t-9 -21.5l-181 -180q-9 -9 -21.5 -9t-21.5 9zM271 -256q-54 0 -103.5 20t-87.5 56q-39 37 -59.5 84t-20.5 99q0 109 80 184q38 36 87.5 55.5t103.5 19.5q42 0 82 -12.5t73.5 -35t59.5 -54t40 -70.5
q8 -21 12 -42.5t4 -44.5q0 -13 -9 -22t-22 -9h-447q6 -35 24.5 -65.5t46 -53t62.5 -35t74 -12.5q37 0 71.5 12t63.5 35q11 9 23.5 7t20.5 -12t6.5 -22.5t-11.5 -20.5q-37 -29 -81.5 -45t-92.5 -16zM477 34q-1 9 -3.5 17.5t-5.5 16.5q-11 30 -30.5 54t-45.5 41.5t-57 27
t-64 9.5q-39 0 -74 -12.5t-62.5 -35t-46 -53t-24.5 -65.5h413z" />
    <glyph glyph-name="ecircumflex" unicode="&#xea;" horiz-adv-x="665" 
d="M89 383q0 13 8 21l149 162q10 10 22 10q14 0 23 -9l160 -160q9 -9 9 -22t-9 -22q-10 -9 -22.5 -9t-21.5 9l-137 137l-127 -138q-9 -10 -22 -10.5t-22 8.5q-10 9 -10 23zM274 -264q-55 0 -104.5 19t-88.5 57q-40 38 -60.5 85t-20.5 101t20.5 101t60.5 85q39 38 88.5 57
t104.5 19q43 0 83.5 -12.5t74.5 -35.5t60 -55t40 -71q8 -21 12 -43t4 -45q0 -13 -9 -22t-22 -9h-452q6 -36 24.5 -67t46.5 -53.5t63.5 -35.5t74.5 -13q77 0 137 48q11 8 23.5 6.5t20.5 -11.5t7 -23t-12 -21q-37 -29 -82 -45t-94 -16zM483 29q-3 18 -9 35q-12 30 -31.5 54.5
t-46 42.5t-57.5 27.5t-65 9.5q-39 0 -74.5 -13t-63.5 -36t-46.5 -53.5t-24.5 -66.5h418z" />
    <glyph glyph-name="edieresis" unicode="&#xeb;" horiz-adv-x="661" 
d="M145 427q15 0 26 -11t11 -27q0 -15 -11 -26t-26 -11q-16 0 -26.5 11t-10.5 26q0 16 10.5 27t26.5 11zM418 427q16 0 26.5 -11t10.5 -27q0 -15 -10.5 -26t-26.5 -11q-15 0 -26 11t-11 26q0 16 11 27t26 11zM274 -263q-55 0 -104.5 19.5t-88.5 56.5t-60 84.5t-21 101.5
t21 100.5t60 84.5q40 38 89 57.5t104 19.5q43 0 83.5 -12.5t74 -35.5t59.5 -55.5t41 -71.5q16 -43 16 -87q0 -14 -9 -23t-22 -9h-452q6 -36 24.5 -66.5t46.5 -53t63.5 -35.5t74.5 -13q77 0 137 48q11 8 23.5 6.5t20.5 -11.5q8 -11 7 -23t-12 -21q-37 -29 -82 -45t-94 -16z
M483 30q-2 8 -3.5 16.5t-5.5 18.5q-23 60 -77 96.5t-123 36.5q-39 0 -74.5 -13t-63.5 -35.5t-46.5 -53t-24.5 -66.5h418z" />
    <glyph glyph-name="igrave" unicode="&#xec;" horiz-adv-x="254" 
d="M29 -260q-14 0 -23 9t-9 23v470q0 14 9 23t23 9q13 0 22.5 -9t9.5 -23v-470q0 -14 -9.5 -23t-22.5 -9zM115 330q-10 -10 -22.5 -9.5t-22.5 9.5l-139 138q-9 9 -9 22.5t9 22.5t22 9t23 -9l139 -138q10 -9 9.5 -22.5t-9.5 -22.5z" />
    <glyph glyph-name="iacute" unicode="&#xed;" horiz-adv-x="209" 
d="M-49 330q-9 9 -9.5 22.5t9.5 22.5l139 138q9 9 22 9t23 -9q9 -9 9 -22.5t-9 -22.5l-139 -138q-10 -10 -23 -10t-22 10zM37 -260q-14 0 -23 9t-9 23v470q0 14 9 23t23 9t23 -9t9 -23v-470q0 -14 -9 -23t-23 -9z" />
    <glyph glyph-name="ntilde" unicode="&#xf1;" horiz-adv-x="678" 
d="M353 345q-32 0 -60.5 15t-46.5 43l-1 1q-11 17 -30 25t-39 3t-34 -19t-18 -34q-2 -13 -12.5 -20t-23.5 -5t-20 12.5t-5 23.5q8 39 35 67t66 36t75 -7.5t58 -48.5h1q11 -17 30 -25.5t39 -3.5t34 19.5t18 34.5q2 13 12.5 20t23.5 5t20 -13t5 -23q-8 -39 -35 -67t-66 -36
q-14 -3 -26 -3zM463 179q-38 37 -87.5 56t-103.5 19q-55 0 -104.5 -19t-87.5 -56l-9.5 -9.5t-8.5 -9.5v64q0 13 -9 21.5t-22 8.5t-22 -8.5t-9 -21.5v-458q0 -13 9 -22t22 -9t22 9t9 22v229q0 41 16.5 77t45 63t66.5 42.5t82 15.5q43 0 81 -15.5t66.5 -42.5t45 -63t16.5 -77
v-229q0 -13 9 -22t22 -9t22 9t9 22v229q0 52 -20.5 99.5t-59.5 84.5z" />
    <glyph glyph-name="ograve" unicode="&#xf2;" horiz-adv-x="689" 
d="M276 197q-44 0 -82.5 -15.5t-67.5 -42.5t-45.5 -63.5t-16.5 -77.5t16.5 -77.5t45.5 -63.5t67.5 -43t82.5 -16t82.5 16t67.5 43t45.5 63.5t16.5 77.5t-16.5 77.5t-45.5 63.5t-67.5 42.5t-82.5 15.5zM276 -264q-55 0 -105 19.5t-88 56.5q-39 37 -60 84.5t-21 101.5t21 101
t60 84q38 37 88 56.5t105 19.5t104.5 -19.5t88.5 -56.5t60 -84t21 -101t-21 -101.5t-60 -84.5t-88.5 -56.5t-104.5 -19.5zM389 360q-9 -9 -22 -9t-22 9l-182 183q-9 9 -9 21.5t9 22.5q9 9 22 9t22 -9l182 -183q9 -9 9 -22t-9 -22z" />
    <glyph glyph-name="oacute" unicode="&#xf3;" horiz-adv-x="687" 
d="M161 360q-9 9 -9 22t9 22l182 183q9 9 22 9t22 -9q9 -10 9 -22.5t-9 -21.5l-182 -183q-9 -9 -22 -9t-22 9zM274 -264q-55 0 -104.5 19.5t-88.5 56.5t-60 84.5t-21 101.5t21 101t60 84t88.5 56.5t104.5 19.5t105 -19.5t88 -56.5q39 -37 60 -84t21 -101t-21 -101.5
t-60 -84.5q-38 -37 -88 -56.5t-105 -19.5zM274 197q-44 0 -82.5 -15.5t-67.5 -42.5t-45.5 -63.5t-16.5 -77.5t16.5 -77.5t45.5 -63.5t67.5 -43t82.5 -16t82.5 16t67.5 43t45.5 63.5t16.5 77.5t-16.5 77.5t-45.5 63.5t-67.5 42.5t-82.5 15.5z" />
    <glyph glyph-name="ocircumflex" unicode="&#xf4;" horiz-adv-x="684" 
d="M86 393q0 10 8 21l150 162q7 10 22 10q14 0 23 -9l159 -160q9 -9 9 -22t-9 -22t-22 -9t-22 9l-137 137l-127 -138q-9 -10 -21.5 -10.5t-22.5 8.5t-10 23zM272 -264q-55 0 -105 19.5t-89 56.5t-59.5 84.5t-20.5 101.5t20.5 100.5t59.5 84.5q40 38 89.5 57.5t104.5 19.5
q54 0 103.5 -19.5t89.5 -57.5q39 -38 60 -84.5t21 -100.5t-21 -101.5t-60 -84.5t-89 -56.5t-104 -19.5zM272 197q-44 0 -82.5 -15.5t-67.5 -42.5t-45.5 -63.5t-16.5 -77.5t16.5 -77.5t45.5 -63.5t67.5 -43t82.5 -16q43 0 81.5 16t67.5 43t45.5 63.5t16.5 77.5t-16.5 77.5
t-45.5 63.5t-67.5 42.5t-81.5 15.5z" />
    <glyph glyph-name="odieresis" unicode="&#xf6;" horiz-adv-x="690" 
d="M140 437q16 0 27 -11t11 -27q0 -15 -11 -26t-27 -11q-15 0 -26 11t-11 26q0 16 11 27t26 11zM414 437q15 0 26 -11t11 -27q0 -15 -11 -26t-26 -11q-16 0 -27 11t-11 26q0 16 11 27t27 11zM277 -263q-55 0 -104.5 19.5t-88.5 56.5t-60 84t-21 101t21 101.5t60 84.5
t88.5 56.5t104.5 19.5t105 -19.5t88 -56.5q39 -37 60 -84.5t21 -101.5t-21 -101t-60 -84q-38 -37 -88 -56.5t-105 -19.5zM277 198q-44 0 -82.5 -15.5t-67.5 -42.5t-45.5 -63.5t-16.5 -78.5q0 -41 16.5 -77.5t45.5 -63.5t67.5 -42.5t82.5 -15.5t82.5 15.5t67.5 42.5
t45.5 63.5t16.5 77.5q0 42 -16.5 78.5t-45.5 63.5t-67.5 42.5t-82.5 15.5z" />
    <glyph glyph-name="divide" unicode="&#xf7;" horiz-adv-x="418" 
 />
    <glyph glyph-name="ugrave" unicode="&#xf9;" horiz-adv-x="693" 
d="M542 232q0 -1 0.5 -1.5t0.5 -1.5v-228v-228q0 -13 -9 -22t-22 -9t-22 9t-9 22v63l-18 -19q-36 -38 -86.5 -56.5t-104.5 -18.5t-103.5 19.5t-87.5 55.5q-80 75 -80 184v228q0 13 9 22t22 9t22 -9t9 -22v-228q0 -41 16.5 -77t44.5 -63t66 -42.5t82 -15.5q43 0 81 15.5
t66.5 42.5t45 63t16.5 77v228q0 13 9 22t22 9q12 0 20.5 -8.5t9.5 -19.5zM410 359q-9 -9 -21.5 -9t-21.5 9l-181 180q-9 9 -9 22t9 22t22 9t22 -9l180 -180q9 -9 9 -22t-9 -22z" />
    <glyph glyph-name="uacute" unicode="&#xfa;" horiz-adv-x="693" 
d="M160 359q-9 9 -9 22t9 22l180 180q9 9 22 9t22 -9t9 -22t-9 -22l-181 -180q-9 -9 -21.5 -9t-21.5 9zM542 232q-1 11 -9.5 19.5t-20.5 8.5q-13 0 -22 -9t-9 -22v-228q0 -41 -16.5 -77t-45 -63t-66.5 -42.5t-81 -15.5q-44 0 -82 15.5t-66 42.5t-44.5 63t-16.5 77v228
q0 13 -9 22t-22 9t-22 -9t-9 -22v-228q0 -109 80 -184q38 -36 87.5 -55.5t103.5 -19.5t104.5 18.5t86.5 56.5l18 19v-63q0 -13 9 -22t22 -9t22 9t9 22v228v228q0 1 -0.5 1.5t-0.5 1.5z" />
    <glyph glyph-name="udieresis" unicode="&#xfc;" horiz-adv-x="686" 
d="M135 439q16 0 26.5 -11t10.5 -26q0 -16 -10.5 -26.5t-26.5 -10.5q-15 0 -26 10.5t-11 26.5q0 15 11 26t26 11zM408 439q16 0 26.5 -11t10.5 -26q0 -16 -10.5 -26.5t-26.5 -10.5q-15 0 -26 10.5t-11 26.5q0 15 11 26t26 11zM546 235q-2 12 -10.5 20t-20.5 8q-14 0 -23 -9
t-9 -22v-231q0 -41 -16.5 -77.5t-45.5 -63.5t-67.5 -43t-81.5 -16q-44 0 -82.5 16t-67.5 43t-45.5 63.5t-16.5 77.5v231q0 13 -9 22t-22 9t-22 -9t-9 -22v-231q0 -108 81 -186q38 -37 88 -56.5t105 -19.5t104.5 19.5t88.5 56.5q5 5 9.5 10t8.5 10v-65q0 -13 9 -22t23 -9
q13 0 22 9t9 22v231v231v3z" />
    <glyph glyph-name="Ydieresis" unicode="&#x178;" horiz-adv-x="663" 
d="M540 738q-11 7 -24 3t-19 -16l-217 -413l-220 413q-7 12 -19.5 15.5t-23.5 -2.5q-12 -7 -15.5 -19t2.5 -23l244 -459v-465q0 -13 9.5 -22t22.5 -9q14 0 23 9t9 22v465l241 459q6 11 2 23.5t-15 18.5zM140 891q16 0 26.5 -11t10.5 -27t-10.5 -27t-26.5 -11t-27 11t-11 27
t11 27t27 11zM417 891q16 0 27 -11t11 -27t-11 -27t-27 -11t-26.5 11t-10.5 27t10.5 27t26.5 11z" />
    <glyph glyph-name="fraction" unicode="&#x2044;" horiz-adv-x="343" 
 />
    <glyph glyph-name="Euro" unicode="&#x20ac;" horiz-adv-x="557" 
d="M434 -213q4 -12 -1.5 -24t-17.5 -17q-51 -17 -99 -17q-57 0 -107.5 20t-89.5 58q-41 39 -63 91h-68q-14 0 -23 9t-9 23q0 13 9 22.5t23 9.5h51q-3 16 -3 34q0 17 3 34h-51q-14 0 -23 9t-9 23q0 13 9 22.5t23 9.5h68q22 52 63 91q39 38 89.5 58t107.5 20q25 0 49 -4
t48 -13q12 -5 18 -16.5t1 -23.5q-5 -13 -16.5 -19t-24.5 -1q-37 13 -75 13q-63 0 -112.5 -28.5t-77.5 -76.5h232q14 0 23 -9.5t9 -22.5q0 -14 -9 -23t-23 -9h-255q-3 -17 -3 -34q0 -18 3 -34h255q14 0 23 -9.5t9 -22.5q0 -14 -9 -23t-23 -9h-232q28 -48 77.5 -76.5
t112.5 -28.5q20 0 39.5 2.5t37.5 10.5q12 5 24 -0.5t17 -18.5z" />
    <glyph glyph-name="fi" unicode="&#xfb01;" horiz-adv-x="514" 
d="M367 398q0 25 -25 25q-11 0 -18.5 -7t-7.5 -18t7.5 -18t18.5 -7q25 0 25 25zM342 -260q13 0 22 9t9 23v470q0 13 -9 22t-22 9q-14 0 -23 -9t-9 -22v-470q0 -14 9 -23t23 -9zM278 740q14 0 23 -9t9 -23q0 -13 -9 -22t-23 -9h-125q-38 0 -64 -26t-26 -64v-315h92
q13 0 22 -9.5t9 -22.5t-9 -22.5t-22 -9.5h-92v-436q0 -14 -9 -23t-22 -9q-14 0 -23 9t-9 23v815q0 31 12 59t33 49t48.5 33t59.5 12h125z" />
    <glyph glyph-name="fl" unicode="&#xfb02;" horiz-adv-x="458" 
d="M278 745q14 0 23 -9t9 -23v-934q0 -14 -9 -23t-23 -9q-13 0 -22.5 9t-9.5 23v903h-93q-38 0 -64 -26t-26 -64v-315h92q13 0 22 -9.5t9 -22.5t-9 -22.5t-22 -9.5h-92v-436q0 -14 -9 -23t-22 -9q-14 0 -23 9t-9 23v815q0 31 12 59t33 49t48.5 33t59.5 12h125z" />
    </font>
</defs>
</svg>
